<mxfile host="65bd71144e">
    <diagram id="0T6-ofMiKz14NQdBQLV2" name="ページ1">
        <mxGraphModel dx="902" dy="549" grid="1" gridSize="10" guides="1" tooltips="1" connect="1" arrows="1" fold="1" page="1" pageScale="1" pageWidth="827" pageHeight="1169" math="0" shadow="0">
            <root>
                <mxCell id="0"/>
                <mxCell id="1" parent="0"/>
                <mxCell id="2" value="安心" style="swimlane;whiteSpace=wrap;html=1;startSize=23;" vertex="1" parent="1">
                    <mxGeometry x="40" y="80" width="170" height="279.5" as="geometry"/>
                </mxCell>
                <mxCell id="3" value="結果&lt;div&gt;&lt;/div&gt;" style="rounded=1;whiteSpace=wrap;html=1;shadow=0;labelBackgroundColor=none;strokeColor=none;strokeWidth=3;fillColor=#F08705;fontFamily=Helvetica;fontSize=14;fontColor=#FFFFFF;align=center;spacing=5;fontStyle=1;arcSize=0;perimeterSpacing=2;" vertex="1" parent="2">
                    <mxGeometry x="10" y="210" width="150" height="63" as="geometry"/>
                </mxCell>
                <mxCell id="8" style="edgeStyle=none;html=1;" edge="1" parent="2" source="5" target="3">
                    <mxGeometry relative="1" as="geometry"/>
                </mxCell>
                <UserObject label="&lt;div&gt;&lt;span style=&quot;background-color: initial;&quot;&gt;説明&lt;/span&gt;&lt;br&gt;&lt;/div&gt;" link="https://zenn.dev/minegishirei/books/engineer_psychology/viewer/1000eye#%E7%9E%AC%E3%81%8D%E3%81%AE%E5%9B%9E%E6%95%B0%E3%81%8C10%E7%A7%92%E3%81%AB1~2%E5%9B%9E%EF%BC%9A%E6%AD%A3%E5%B8%B8%E3%81%AA%E7%8A%B6%E6%85%8B" id="5">
                    <mxCell style="rounded=1;whiteSpace=wrap;html=1;shadow=0;labelBackgroundColor=none;strokeColor=none;strokeWidth=3;fillColor=#f5af58;fontFamily=Helvetica;fontSize=14;fontColor=#FFFFFF;align=left;spacing=5;arcSize=0;perimeterSpacing=2;" vertex="1" parent="2">
                        <mxGeometry x="10" y="120" width="150" height="70" as="geometry"/>
                    </mxCell>
                </UserObject>
                <mxCell id="7" style="edgeStyle=none;html=1;" edge="1" parent="2" source="6" target="5">
                    <mxGeometry relative="1" as="geometry"/>
                </mxCell>
                <UserObject label="&lt;div&gt;行動&lt;/div&gt;" link="https://zenn.dev/minegishirei/books/engineer_psychology/viewer/1000eye#%E7%9E%AC%E3%81%8D%E3%81%AE%E5%9B%9E%E6%95%B0%E3%81%8C10%E7%A7%92%E3%81%AB1~2%E5%9B%9E%EF%BC%9A%E6%AD%A3%E5%B8%B8%E3%81%AA%E7%8A%B6%E6%85%8B" id="6">
                    <mxCell style="rounded=1;whiteSpace=wrap;html=1;shadow=0;labelBackgroundColor=none;strokeColor=none;strokeWidth=3;fillColor=#f5af58;fontFamily=Helvetica;fontSize=14;fontColor=#FFFFFF;align=left;spacing=5;arcSize=0;perimeterSpacing=2;" vertex="1" parent="2">
                        <mxGeometry x="10" y="30" width="150" height="70" as="geometry"/>
                    </mxCell>
                </UserObject>
                <mxCell id="9" value="デバフ" style="swimlane;whiteSpace=wrap;html=1;startSize=23;" vertex="1" parent="1">
                    <mxGeometry x="229" y="390" width="170" height="279.5" as="geometry"/>
                </mxCell>
                <mxCell id="10" style="edgeStyle=orthogonalEdgeStyle;rounded=0;orthogonalLoop=1;jettySize=auto;html=1;" edge="1" parent="9" source="11" target="12">
                    <mxGeometry relative="1" as="geometry"/>
                </mxCell>
                <UserObject label="説明" link="https://qiita.com/" id="11">
                    <mxCell style="rounded=1;whiteSpace=wrap;html=1;shadow=0;labelBackgroundColor=none;strokeColor=none;strokeWidth=3;fillColor=#61c6ce;fontFamily=Helvetica;fontSize=14;fontColor=#FFFFFF;align=center;spacing=5;fontStyle=0;arcSize=0;perimeterSpacing=2;" vertex="1" parent="9">
                        <mxGeometry x="10" y="120" width="150" height="70" as="geometry"/>
                    </mxCell>
                </UserObject>
                <mxCell id="12" value="結果" style="rounded=1;whiteSpace=wrap;html=1;shadow=0;labelBackgroundColor=none;strokeColor=none;strokeWidth=3;fillColor=#12aab5;fontFamily=Helvetica;fontSize=14;fontColor=#FFFFFF;align=center;spacing=5;fontStyle=1;arcSize=0;perimeterSpacing=2;" vertex="1" parent="9">
                    <mxGeometry x="10" y="210" width="150" height="60" as="geometry"/>
                </mxCell>
                <mxCell id="30" style="edgeStyle=none;html=1;" edge="1" parent="9" source="28" target="11">
                    <mxGeometry relative="1" as="geometry"/>
                </mxCell>
                <UserObject label="行動" link="https://qiita.com/" id="28">
                    <mxCell style="rounded=1;whiteSpace=wrap;html=1;shadow=0;labelBackgroundColor=none;strokeColor=none;strokeWidth=3;fillColor=#61c6ce;fontFamily=Helvetica;fontSize=14;fontColor=#FFFFFF;align=center;spacing=5;fontStyle=0;arcSize=0;perimeterSpacing=2;" vertex="1" parent="9">
                        <mxGeometry x="10" y="30" width="150" height="70" as="geometry"/>
                    </mxCell>
                </UserObject>
                <mxCell id="13" value="嫌い / 現状維持" style="swimlane;whiteSpace=wrap;html=1;startSize=23;" vertex="1" parent="1">
                    <mxGeometry x="229" y="80" width="171" height="279.5" as="geometry"/>
                </mxCell>
                <mxCell id="17" value="極端に少ない瞬き：噓の可能性、緊張状態" style="rounded=1;whiteSpace=wrap;html=1;shadow=0;labelBackgroundColor=none;strokeColor=none;strokeWidth=3;fillColor=#1699d3;fontFamily=Helvetica;fontSize=14;fontColor=#FFFFFF;align=center;spacing=5;fontStyle=1;arcSize=0;perimeterSpacing=2;" vertex="1" parent="13">
                    <mxGeometry x="11" y="210" width="150" height="60" as="geometry"/>
                </mxCell>
                <mxCell id="18" style="edgeStyle=orthogonalEdgeStyle;rounded=0;orthogonalLoop=1;jettySize=auto;html=1;entryX=0.5;entryY=0;entryDx=0;entryDy=0;" edge="1" parent="13" source="19" target="17">
                    <mxGeometry relative="1" as="geometry"/>
                </mxCell>
                <UserObject label="説明" link="https://zenn.dev/minegishirei/books/engineer_psychology/viewer/1000eye#%E6%A5%B5%E7%AB%AF%E3%81%AB%E5%B0%91%E3%81%AA%E3%81%84%E7%9E%AC%E3%81%8D%EF%BC%9A%E5%99%93%E3%81%AE%E5%8F%AF%E8%83%BD%E6%80%A7%E3%80%81%E7%B7%8A%E5%BC%B5%E7%8A%B6%E6%85%8B" id="19">
                    <mxCell style="rounded=1;whiteSpace=wrap;html=1;shadow=0;labelBackgroundColor=none;strokeColor=none;strokeWidth=3;fillColor=#64bbe2;fontFamily=Helvetica;fontSize=14;fontColor=#FFFFFF;align=left;spacing=5;arcSize=0;perimeterSpacing=2;" vertex="1" parent="13">
                        <mxGeometry x="11" y="120" width="150" height="69.5" as="geometry"/>
                    </mxCell>
                </UserObject>
                <mxCell id="29" style="edgeStyle=none;html=1;" edge="1" parent="13" source="26" target="19">
                    <mxGeometry relative="1" as="geometry"/>
                </mxCell>
                <UserObject label="行動" link="https://zenn.dev/minegishirei/books/engineer_psychology/viewer/1000eye#%E6%A5%B5%E7%AB%AF%E3%81%AB%E5%B0%91%E3%81%AA%E3%81%84%E7%9E%AC%E3%81%8D%EF%BC%9A%E5%99%93%E3%81%AE%E5%8F%AF%E8%83%BD%E6%80%A7%E3%80%81%E7%B7%8A%E5%BC%B5%E7%8A%B6%E6%85%8B" id="26">
                    <mxCell style="rounded=1;whiteSpace=wrap;html=1;shadow=0;labelBackgroundColor=none;strokeColor=none;strokeWidth=3;fillColor=#64bbe2;fontFamily=Helvetica;fontSize=14;fontColor=#FFFFFF;align=left;spacing=5;arcSize=0;perimeterSpacing=2;" vertex="1" parent="13">
                        <mxGeometry x="10.5" y="30" width="150" height="69.5" as="geometry"/>
                    </mxCell>
                </UserObject>
                <mxCell id="23" value="バフ" style="swimlane;whiteSpace=wrap;html=1;startSize=23;" vertex="1" parent="1">
                    <mxGeometry x="40" y="390" width="170" height="279.5" as="geometry"/>
                </mxCell>
                <mxCell id="24" value="結果" style="rounded=1;whiteSpace=wrap;html=1;shadow=0;labelBackgroundColor=none;strokeColor=none;strokeWidth=3;fillColor=#FF66B3;fontFamily=Helvetica;fontSize=14;fontColor=#FFFFFF;align=center;spacing=5;fontStyle=0;arcSize=0;perimeterSpacing=2;" vertex="1" parent="23">
                    <mxGeometry x="10" y="210" width="150" height="60" as="geometry"/>
                </mxCell>
                <mxCell id="25" value="&lt;div&gt;説明&lt;/div&gt;" style="rounded=1;whiteSpace=wrap;html=1;shadow=0;labelBackgroundColor=none;strokeColor=none;strokeWidth=3;fillColor=#FF99CC;fontFamily=Helvetica;fontSize=14;fontColor=#FFFFFF;align=center;spacing=5;fontStyle=1;arcSize=0;perimeterSpacing=2;" vertex="1" parent="23">
                    <mxGeometry x="10" y="30" width="150" height="150" as="geometry"/>
                </mxCell>
                <mxCell id="31" value="本質" style="swimlane;whiteSpace=wrap;html=1;" vertex="1" parent="1">
                    <mxGeometry x="420" y="389" width="170" height="280.5" as="geometry"/>
                </mxCell>
                <mxCell id="32" style="edgeStyle=orthogonalEdgeStyle;rounded=0;orthogonalLoop=1;jettySize=auto;html=1;entryX=0.5;entryY=0;entryDx=0;entryDy=0;" edge="1" parent="31">
                    <mxGeometry relative="1" as="geometry">
                        <mxPoint x="85" y="182" as="sourcePoint"/>
                        <mxPoint x="85" y="212.5" as="targetPoint"/>
                    </mxGeometry>
                </mxCell>
                <mxCell id="33" value="&lt;div style=&quot;border-color: var(--border-color);&quot;&gt;&lt;div style=&quot;border-color: var(--border-color);&quot;&gt;「私」を多く言う人は&lt;/div&gt;&lt;div style=&quot;border-color: var(--border-color);&quot;&gt;- 会話のボールを意識する人&lt;/div&gt;&lt;div style=&quot;border-color: var(--border-color);&quot;&gt;- 権力者&lt;/div&gt;&lt;div style=&quot;border-color: var(--border-color);&quot;&gt;- 正直者&lt;/div&gt;&lt;div style=&quot;border-color: var(--border-color);&quot;&gt;これらの要素を自由要旨する&lt;/div&gt;&lt;/div&gt;" style="rounded=1;whiteSpace=wrap;html=1;shadow=0;labelBackgroundColor=none;strokeColor=none;strokeWidth=3;fillColor=#2F5B7C;fontFamily=Helvetica;fontSize=14;fontColor=#FFFFFF;align=left;spacing=5;arcSize=0;perimeterSpacing=2;" vertex="1" parent="31">
                    <mxGeometry x="10" y="30" width="150" height="150" as="geometry"/>
                </mxCell>
                <mxCell id="34" value="&lt;span style=&quot;font-size: 14px; font-weight: 400;&quot;&gt;「私」の高頻度&lt;/span&gt;&lt;div&gt;&lt;span style=&quot;font-size: 14px; font-weight: 400;&quot;&gt;「ボール」を意識している/権力/正直&lt;/span&gt;&lt;br&gt;&lt;/div&gt;" style="rounded=1;whiteSpace=wrap;html=1;shadow=0;labelBackgroundColor=none;strokeColor=none;strokeWidth=3;fillColor=#2F5B7C;fontFamily=Helvetica;fontSize=16;fontColor=#FFFFFF;align=center;fontStyle=1;spacing=5;arcSize=0;perimeterSpacing=2;" vertex="1" parent="31">
                    <mxGeometry x="10" y="210" width="150" height="64" as="geometry"/>
                </mxCell>
                <mxCell id="35" value="改革" style="swimlane;whiteSpace=wrap;html=1;startSize=23;" vertex="1" parent="1">
                    <mxGeometry x="420" y="80" width="170" height="279.5" as="geometry"/>
                </mxCell>
                <mxCell id="42" style="edgeStyle=orthogonalEdgeStyle;rounded=0;orthogonalLoop=1;jettySize=auto;html=1;entryX=0.5;entryY=0;entryDx=0;entryDy=0;" edge="1" parent="35" source="43" target="44">
                    <mxGeometry relative="1" as="geometry"/>
                </mxCell>
                <mxCell id="43" value="癌の外科手術の効果について死亡率の代わりに生存率が示された場合、&lt;br style=&quot;border-color: var(--border-color);&quot;&gt;医師が手術を選択する割合は34%増加した&lt;br style=&quot;border-color: var(--border-color);&quot;&gt;McNeil 1982" style="rounded=1;whiteSpace=wrap;html=1;shadow=0;labelBackgroundColor=none;strokeColor=none;strokeWidth=3;fillColor=#FCAD90;fontFamily=Helvetica;fontSize=14;fontColor=#FFFFFF;align=center;spacing=5;arcSize=0;perimeterSpacing=2;" vertex="1" parent="35">
                    <mxGeometry x="10" y="30" width="150" height="148" as="geometry"/>
                </mxCell>
                <mxCell id="44" value="「生存率」&lt;br style=&quot;border-color: var(--border-color);&quot;&gt;変革" style="rounded=1;whiteSpace=wrap;html=1;shadow=0;labelBackgroundColor=none;strokeColor=none;strokeWidth=3;fillColor=#e85642;fontFamily=Helvetica;fontSize=14;fontColor=#FFFFFF;align=center;spacing=5;fontStyle=1;arcSize=0;perimeterSpacing=2;" vertex="1" parent="35">
                    <mxGeometry x="10" y="208.5" width="150" height="60" as="geometry"/>
                </mxCell>
            </root>
        </mxGraphModel>
    </diagram>
</mxfile>